<svg xmlns="http://www.w3.org/2000/svg" viewBox="0 0 512 512"><path fill="#0277bd" d="M10.67 234.67H160v256H10.67z"/><path fill="#01579b" d="M160 501.33H10.67c-5.9 0-10.67-4.77-10.67-10.66v-256C0 228.77 4.78 224 10.67 224H160c5.9 0 10.67 4.78 10.67 10.67v256c0 5.89-4.78 10.66-10.67 10.66zM21.33 480h128V245.33h-128V480z"/><path fill="#eceff1" d="M160 448a110.55 110.55 0 0064 21.33h197.33a37.25 37.25 0 0025.6-64.42 37.1 37.1 0 0021.34-64 37.1 37.1 0 0012.8-70 42.67 42.67 0 00-22.4-78.91H309.33a340.49 340.49 0 0021.34-96c0-40-34.67-74.67-53.34-74.67a55.78 55.78 0 00-32 10.67v74.67l-64 138.66L160 256v192z"/><path fill="#01579b" d="M421.33 480H224a119.72 119.72 0 01-71.55-24.45c-2-2-3.12-4.72-3.12-7.55V256c0-4.04 2.28-7.73 5.9-9.54l17.97-9 61.47-133.12V32c-.01-3.24 1.46-6.31 3.99-8.34a66.94 66.94 0 0138.67-13c24.69 0 64 39.07 64 85.34a307.3 307.3 0 01-17.06 85.33h134.4A53.33 53.33 0 01512 234.67c.03 13.23-4.92 26-13.87 35.75a47.7 47.7 0 01-12.48 76.27 47.8 47.8 0 01-21.33 64 47.25 47.25 0 015.01 21.33 48.06 48.06 0 01-48 47.98zm-250.66-36.88A109.9 109.9 0 00224 458.67h197.33A26.69 26.69 0 00448 432c0-7.33-3.05-14.32-8.43-19.3a10.67 10.67 0 016.1-18.38 26.43 26.43 0 0015.24-45.63 10.67 10.67 0 016.1-18.37 26.43 26.43 0 009.02-49.94 10.67 10.67 0 01-.7-18.56 32 32 0 00-16.67-59.15H309.33a10.67 10.67 0 01-9.96-14.47A331.68 331.68 0 00320 96c0-34.94-30.98-64-42.67-64A44.93 44.93 0 00256 37.78v68.89c0 1.54-.34 3.07-.98 4.48l-64 138.66a10.67 10.67 0 01-4.9 5.06l-15.45 7.72v180.53z"/></svg>